<svg width="27" height="27" viewBox="0 0 27 27" fill="none" xmlns="http://www.w3.org/2000/svg">
<path d="M13.5 23.625L11.8688 22.1625C9.975 20.4562 8.40938 18.9843 7.17188 17.7468C5.93438 16.5093 4.95 15.4031 4.21875 14.4281C3.4875 13.4343 2.97188 12.525 2.67188 11.7C2.39063 10.875 2.25 10.0312 2.25 9.1687C2.25 7.4062 2.84063 5.93433 4.02188 4.75308C5.20313 3.57183 6.675 2.9812 8.4375 2.9812C9.4125 2.9812 10.3406 3.18745 11.2219 3.59995C12.1031 4.01245 12.8625 4.5937 13.5 5.3437C14.1375 4.5937 14.8969 4.01245 15.7781 3.59995C16.6594 3.18745 17.5875 2.9812 18.5625 2.9812C20.325 2.9812 21.7969 3.57183 22.9781 4.75308C24.1594 5.93433 24.75 7.4062 24.75 9.1687C24.75 10.0312 24.6 10.875 24.3 11.7C24.0188 12.525 23.5125 13.4343 22.7813 14.4281C22.05 15.4031 21.0656 16.5093 19.8281 17.7468C18.5906 18.9843 17.025 20.4562 15.1313 22.1625L13.5 23.625ZM13.5 20.5875C15.3 18.975 16.7813 17.5968 17.9438 16.4531C19.1063 15.2906 20.025 14.2875 20.7 13.4437C21.375 12.5812 21.8438 11.8218 22.1063 11.1656C22.3688 10.4906 22.5 9.82495 22.5 9.1687C22.5 8.0437 22.125 7.1062 21.375 6.3562C20.625 5.6062 19.6875 5.2312 18.5625 5.2312C17.6813 5.2312 16.8656 5.48433 16.1156 5.99058C15.3656 6.47808 14.85 7.1062 14.5688 7.87495H12.4313C12.15 7.1062 11.6344 6.47808 10.8844 5.99058C10.1344 5.48433 9.31875 5.2312 8.4375 5.2312C7.3125 5.2312 6.375 5.6062 5.625 6.3562C4.875 7.1062 4.5 8.0437 4.5 9.1687C4.5 9.82495 4.63125 10.4906 4.89375 11.1656C5.15625 11.8218 5.625 12.5812 6.3 13.4437C6.975 14.2875 7.89375 15.2906 9.05625 16.4531C10.2188 17.5968 11.7 18.975 13.5 20.5875Z" fill="white"/>
</svg>
